<?xml version="1.0" encoding="UTF-8" standalone="no"?>
<!-- Created with Inkscape (http://www.inkscape.org/) -->
<svg
   xmlns:dc="http://purl.org/dc/elements/1.1/"
   xmlns:cc="http://creativecommons.org/ns#"
   xmlns:rdf="http://www.w3.org/1999/02/22-rdf-syntax-ns#"
   xmlns:svg="http://www.w3.org/2000/svg"
   xmlns="http://www.w3.org/2000/svg"
   xmlns:sodipodi="http://sodipodi.sourceforge.net/DTD/sodipodi-0.dtd"
   xmlns:inkscape="http://www.inkscape.org/namespaces/inkscape"
   version="1.0"
   width="64"
   height="64"
   id="svg12741"
   sodipodi:version="0.32"
   inkscape:version="0.46"
   sodipodi:docname="compass-wheel-black-white-blue-yellow-64.svg"
   inkscape:output_extension="org.inkscape.output.svg.inkscape">
  <metadata
     id="metadata70">
    <rdf:RDF>
      <cc:Work
         rdf:about="">
        <dc:format>image/svg+xml</dc:format>
        <dc:type
           rdf:resource="http://purl.org/dc/dcmitype/StillImage" />
        <cc:license
           rdf:resource="http://creativecommons.org/licenses/publicdomain/" />
      </cc:Work>
      <cc:License
         rdf:about="http://creativecommons.org/licenses/publicdomain/">
        <cc:permits
           rdf:resource="http://creativecommons.org/ns#Reproduction" />
        <cc:permits
           rdf:resource="http://creativecommons.org/ns#Distribution" />
        <cc:permits
           rdf:resource="http://creativecommons.org/ns#DerivativeWorks" />
      </cc:License>
    </rdf:RDF>
  </metadata>
  <sodipodi:namedview
     inkscape:window-height="713"
     inkscape:window-width="756"
     inkscape:pageshadow="2"
     inkscape:pageopacity="0.0"
     guidetolerance="10.0"
     gridtolerance="10.0"
     objecttolerance="10.0"
     borderopacity="1.0"
     bordercolor="#666666"
     pagecolor="#ffffff"
     id="base"
     showgrid="false"
     inkscape:zoom="7.78125"
     inkscape:cx="32"
     inkscape:cy="32"
     inkscape:window-x="0"
     inkscape:window-y="0"
     inkscape:current-layer="svg12741" />
  <defs
     id="defs12743">
    <inkscape:perspective
       sodipodi:type="inkscape:persp3d"
       inkscape:vp_x="0 : 32 : 1"
       inkscape:vp_y="0 : 1000 : 0"
       inkscape:vp_z="64 : 32 : 1"
       inkscape:persp3d-origin="32 : 21.333333 : 1"
       id="perspective72" />
  </defs>
  <g
     id="layer1">
    <g
       transform="translate(-0.3972108,6.5524155e-2)"
       id="g12676">
      <g
         transform="translate(48.152679,32.421526)"
         id="g12656">
        <g
           id="g12628">
          <path
             d="M -32.740213,6.3363466 L -16.191159,-0.51849424 L -18.585122,-1.5101063 L -32.740213,6.3363466 z"
             id="path12449"
             style="opacity:1;fill:#0000e6;fill-opacity:1;fill-rule:evenodd;stroke:#000000;stroke-width:0.10907298px;stroke-linecap:butt;stroke-linejoin:miter;marker:none;marker-start:none;marker-mid:none;marker-end:none;stroke-miterlimit:4;stroke-dasharray:none;stroke-dashoffset:0;stroke-opacity:1;visibility:visible;display:inline;overflow:visible;enable-background:accumulate" />
          <path
             d="M -32.696873,6.4409758 L -16.147821,-0.41386507 L -17.168482,1.9921299 L -32.696873,6.4409758 z"
             id="path12451"
             style="opacity:1;fill:#ffe200;fill-opacity:1;fill-rule:evenodd;stroke:#000000;stroke-width:0.10907298px;stroke-linecap:butt;stroke-linejoin:miter;marker:none;marker-start:none;marker-mid:none;marker-end:none;stroke-miterlimit:4;stroke-dasharray:none;stroke-dashoffset:0;stroke-opacity:1;visibility:visible;display:inline;overflow:visible;enable-background:accumulate" />
          <path
             d="M -22.942502,-17.108158 L -16.087661,-0.55910409 L -15.096049,-2.953067 L -22.942502,-17.108158 z"
             id="path12453"
             style="opacity:1;fill:#0000e6;fill-opacity:1;fill-rule:evenodd;stroke:#000000;stroke-width:0.10907298px;stroke-linecap:butt;stroke-linejoin:miter;marker:none;marker-start:none;marker-mid:none;marker-end:none;stroke-miterlimit:4;stroke-dasharray:none;stroke-dashoffset:0;stroke-opacity:1;visibility:visible;display:inline;overflow:visible;enable-background:accumulate" />
          <path
             d="M -23.047132,-17.064819 L -16.19229,-0.51576552 L -18.598285,-1.5364269 L -23.047132,-17.064819 z"
             id="path12455"
             style="opacity:1;fill:#ffe200;fill-opacity:1;fill-rule:evenodd;stroke:#000000;stroke-width:0.10907298px;stroke-linecap:butt;stroke-linejoin:miter;marker:none;marker-start:none;marker-mid:none;marker-end:none;stroke-miterlimit:4;stroke-dasharray:none;stroke-dashoffset:0;stroke-opacity:1;visibility:visible;display:inline;overflow:visible;enable-background:accumulate" />
          <path
             d="M 0.50200366,-7.3104471 L -16.04705,-0.45560628 L -13.653088,0.53600575 L 0.50200366,-7.3104471 z"
             id="path12457"
             style="fill:#0000e6;fill-opacity:1;fill-rule:evenodd;stroke:#000000;stroke-width:0.10907298px;stroke-linecap:butt;stroke-linejoin:miter;marker:none;marker-start:none;marker-mid:none;marker-end:none;stroke-miterlimit:4;stroke-dasharray:none;stroke-dashoffset:0;stroke-opacity:1;visibility:visible;display:inline;overflow:visible;enable-background:accumulate" />
          <path
             d="M 0.45866368,-7.4150763 L -16.090389,-0.56023546 L -15.069728,-2.9662304 L 0.45866368,-7.4150763 z"
             id="path12459"
             style="fill:#ffe200;fill-opacity:1;fill-rule:evenodd;stroke:#000000;stroke-width:0.10907298px;stroke-linecap:butt;stroke-linejoin:miter;marker:none;marker-start:none;marker-mid:none;marker-end:none;stroke-miterlimit:4;stroke-dasharray:none;stroke-dashoffset:0;stroke-opacity:1;visibility:visible;display:inline;overflow:visible;enable-background:accumulate" />
          <path
             d="M -9.295708,16.134058 L -16.150549,-0.41499644 L -17.142161,1.9789664 L -9.295708,16.134058 z"
             id="path12461"
             style="opacity:1;fill:#0000e6;fill-opacity:1;fill-rule:evenodd;stroke:#000000;stroke-width:0.10907298px;stroke-linecap:butt;stroke-linejoin:miter;marker:none;marker-start:none;marker-mid:none;marker-end:none;stroke-miterlimit:4;stroke-dasharray:none;stroke-dashoffset:0;stroke-opacity:1;visibility:visible;display:inline;overflow:visible;enable-background:accumulate" />
          <path
             d="M -9.1910788,16.090718 L -16.04592,-0.45833501 L -13.639925,0.56232638 L -9.1910788,16.090718 z"
             id="path12463"
             style="opacity:1;fill:#ffe200;fill-opacity:1;fill-rule:evenodd;stroke:#000000;stroke-width:0.10907298px;stroke-linecap:butt;stroke-linejoin:miter;marker:none;marker-start:none;marker-mid:none;marker-end:none;stroke-miterlimit:4;stroke-dasharray:none;stroke-dashoffset:0;stroke-opacity:1;visibility:visible;display:inline;overflow:visible;enable-background:accumulate" />
        </g>
        <g
           transform="matrix(0.7071068,-0.7071067,0.7071067,0.7071068,-4.3767799,-11.540582)"
           id="g12638">
          <path
             d="M -32.740213,6.3363466 L -16.191159,-0.51849424 L -18.585122,-1.5101063 L -32.740213,6.3363466 z"
             id="path12640"
             style="opacity:1;fill:#0000e6;fill-opacity:1;fill-rule:evenodd;stroke:#000000;stroke-width:0.10907298px;stroke-linecap:butt;stroke-linejoin:miter;marker:none;marker-start:none;marker-mid:none;marker-end:none;stroke-miterlimit:4;stroke-dasharray:none;stroke-dashoffset:0;stroke-opacity:1;visibility:visible;display:inline;overflow:visible;enable-background:accumulate" />
          <path
             d="M -32.696873,6.4409758 L -16.147821,-0.41386507 L -17.168482,1.9921299 L -32.696873,6.4409758 z"
             id="path12642"
             style="opacity:1;fill:#ffe200;fill-opacity:1;fill-rule:evenodd;stroke:#000000;stroke-width:0.10907298px;stroke-linecap:butt;stroke-linejoin:miter;marker:none;marker-start:none;marker-mid:none;marker-end:none;stroke-miterlimit:4;stroke-dasharray:none;stroke-dashoffset:0;stroke-opacity:1;visibility:visible;display:inline;overflow:visible;enable-background:accumulate" />
          <path
             d="M -22.942502,-17.108158 L -16.087661,-0.55910409 L -15.096049,-2.953067 L -22.942502,-17.108158 z"
             id="path12644"
             style="opacity:1;fill:#0000e6;fill-opacity:1;fill-rule:evenodd;stroke:#000000;stroke-width:0.10907298px;stroke-linecap:butt;stroke-linejoin:miter;marker:none;marker-start:none;marker-mid:none;marker-end:none;stroke-miterlimit:4;stroke-dasharray:none;stroke-dashoffset:0;stroke-opacity:1;visibility:visible;display:inline;overflow:visible;enable-background:accumulate" />
          <path
             d="M -23.047132,-17.064819 L -16.19229,-0.51576552 L -18.598285,-1.5364269 L -23.047132,-17.064819 z"
             id="path12646"
             style="opacity:1;fill:#ffe200;fill-opacity:1;fill-rule:evenodd;stroke:#000000;stroke-width:0.10907298px;stroke-linecap:butt;stroke-linejoin:miter;marker:none;marker-start:none;marker-mid:none;marker-end:none;stroke-miterlimit:4;stroke-dasharray:none;stroke-dashoffset:0;stroke-opacity:1;visibility:visible;display:inline;overflow:visible;enable-background:accumulate" />
          <path
             d="M 0.50200366,-7.3104471 L -16.04705,-0.45560628 L -13.653088,0.53600575 L 0.50200366,-7.3104471 z"
             id="path12648"
             style="fill:#0000e6;fill-opacity:1;fill-rule:evenodd;stroke:#000000;stroke-width:0.10907298px;stroke-linecap:butt;stroke-linejoin:miter;marker:none;marker-start:none;marker-mid:none;marker-end:none;stroke-miterlimit:4;stroke-dasharray:none;stroke-dashoffset:0;stroke-opacity:1;visibility:visible;display:inline;overflow:visible;enable-background:accumulate" />
          <path
             d="M 0.45866368,-7.4150763 L -16.090389,-0.56023546 L -15.069728,-2.9662304 L 0.45866368,-7.4150763 z"
             id="path12650"
             style="fill:#ffe200;fill-opacity:1;fill-rule:evenodd;stroke:#000000;stroke-width:0.10907298px;stroke-linecap:butt;stroke-linejoin:miter;marker:none;marker-start:none;marker-mid:none;marker-end:none;stroke-miterlimit:4;stroke-dasharray:none;stroke-dashoffset:0;stroke-opacity:1;visibility:visible;display:inline;overflow:visible;enable-background:accumulate" />
          <path
             d="M -9.295708,16.134058 L -16.150549,-0.41499644 L -17.142161,1.9789664 L -9.295708,16.134058 z"
             id="path12652"
             style="opacity:1;fill:#0000e6;fill-opacity:1;fill-rule:evenodd;stroke:#000000;stroke-width:0.10907298px;stroke-linecap:butt;stroke-linejoin:miter;marker:none;marker-start:none;marker-mid:none;marker-end:none;stroke-miterlimit:4;stroke-dasharray:none;stroke-dashoffset:0;stroke-opacity:1;visibility:visible;display:inline;overflow:visible;enable-background:accumulate" />
          <path
             d="M -9.1910788,16.090718 L -16.04592,-0.45833501 L -13.639925,0.56232638 L -9.1910788,16.090718 z"
             id="path12654"
             style="opacity:1;fill:#ffe200;fill-opacity:1;fill-rule:evenodd;stroke:#000000;stroke-width:0.10907298px;stroke-linecap:butt;stroke-linejoin:miter;marker:none;marker-start:none;marker-mid:none;marker-end:none;stroke-miterlimit:4;stroke-dasharray:none;stroke-dashoffset:0;stroke-opacity:1;visibility:visible;display:inline;overflow:visible;enable-background:accumulate" />
        </g>
      </g>
      <g
         id="g12262">
        <g
           transform="matrix(0.8941733,0,0,0.8941733,16.423326,3.5263049)"
           id="g12116">
          <path
             d="M 17.415424,4.2368489 C 17.404131,0.087278917 17.404878,5.9948889 17.415424,2.0453029 C 21.525556,2.0453059 25.518643,2.8707209 29.081485,4.3785129 C 27.468024,8.2037579 29.869948,2.6323369 28.166456,6.5026029 C 25.166384,5.2329759 20.876364,4.2368489 17.415424,4.2368489 z"
             id="path10788"
             style="fill:#ffffff;fill-opacity:1;fill-rule:evenodd;stroke:#000000;stroke-width:0.31109464;stroke-linecap:round;stroke-linejoin:round;stroke-miterlimit:4;stroke-dasharray:none;stroke-opacity:1" />
          <path
             d="M 6.8820432,6.3489039 C 5.2836382,2.5195229 7.5450722,7.9771579 6.0433742,4.3241799 C 9.8406422,2.7513039 13.845646,1.9857989 17.71429,2.0153769 C 17.687504,6.1668869 17.774502,0.10038792 17.681767,4.3279459 C 14.424197,4.3030419 10.079534,5.0244599 6.8820432,6.3489039 z"
             id="path11299"
             style="fill:#000000;fill-opacity:1;fill-rule:evenodd;stroke:#000000;stroke-width:0.31109464;stroke-linecap:round;stroke-linejoin:round;stroke-miterlimit:4;stroke-dasharray:none;stroke-opacity:1" />
          <path
             d="M -2.0412838,12.33114 C -4.9834588,9.4049359 -0.80561879,13.581719 -3.5909418,10.781483 C -0.68463679,7.8751829 2.7225582,5.6353009 6.3080382,4.1821609 C 7.8720052,8.0279059 5.6308322,2.3898999 7.1629732,6.3311419 C 4.1438402,7.5547509 0.40597021,9.8838859 -2.0412838,12.33114 z"
             id="path11301"
             style="fill:#ffffff;fill-opacity:1;fill-rule:evenodd;stroke:#000000;stroke-width:0.31109464;stroke-linecap:round;stroke-linejoin:round;stroke-miterlimit:4;stroke-dasharray:none;stroke-opacity:1" />
          <path
             d="M -7.9960605,21.272814 C -11.834085,19.695276 -6.3758795,21.95533 -10.020786,20.434146 C -8.4479035,16.636881 -6.1572318,13.263622 -3.4007718,10.548992 C -0.48415179,13.503493 -4.7122978,9.1523139 -1.7885358,12.207223 C -4.1095958,14.493062 -6.6716165,18.075323 -7.9960605,21.272814 z"
             id="path11303"
             style="fill:#000000;fill-opacity:1;fill-rule:evenodd;stroke:#000000;stroke-width:0.31109464;stroke-linecap:round;stroke-linejoin:round;stroke-miterlimit:4;stroke-dasharray:none;stroke-opacity:1" />
          <path
             d="M -10.075726,31.812637 C -14.225296,31.823931 -8.3176865,31.823183 -12.267273,31.812638 C -12.267269,27.702507 -11.441854,23.70942 -9.9340625,20.146578 C -6.1088188,21.760039 -11.680239,19.358115 -7.8099725,21.061607 C -9.0795995,24.061679 -10.075726,28.351699 -10.075726,31.812637 z"
             id="path11305"
             style="fill:#ffffff;fill-opacity:1;fill-rule:evenodd;stroke:#000000;stroke-width:0.31109464;stroke-linecap:round;stroke-linejoin:round;stroke-miterlimit:4;stroke-dasharray:none;stroke-opacity:1" />
          <path
             d="M -7.9636715,42.34602 C -11.793051,43.944426 -6.3354175,41.68299 -9.9883955,43.184689 C -11.561271,39.387421 -12.326776,35.382417 -12.297198,31.513772 C -8.1456885,31.540558 -14.212187,31.45356 -9.9846295,31.546295 C -10.009533,34.803866 -9.2881145,39.148529 -7.9636715,42.34602 z"
             id="path11307"
             style="fill:#000000;fill-opacity:1;fill-rule:evenodd;stroke:#000000;stroke-width:0.31109464;stroke-linecap:round;stroke-linejoin:round;stroke-miterlimit:4;stroke-dasharray:none;stroke-opacity:1" />
          <path
             d="M -1.9814358,51.269347 C -4.9076388,54.211522 -0.73085579,50.033682 -3.5310928,52.819005 C -6.4373915,49.9127 -8.6772745,46.505505 -10.130414,42.920025 C -6.2846685,41.356058 -11.922675,43.597231 -7.9814325,42.06509 C -6.7578235,45.084223 -4.4286888,48.822093 -1.9814358,51.269347 z"
             id="path11309"
             style="fill:#ffffff;fill-opacity:1;fill-rule:evenodd;stroke:#000000;stroke-width:0.31109464;stroke-linecap:round;stroke-linejoin:round;stroke-miterlimit:4;stroke-dasharray:none;stroke-opacity:1" />
          <path
             d="M 6.9602392,57.224124 C 5.3827022,61.062148 7.6427552,55.603942 6.1215712,59.248849 C 2.3243062,57.675966 -1.0489528,55.385294 -3.7635828,52.628835 C -0.80908179,49.712215 -5.1602608,53.940361 -2.1053518,51.016599 C 0.18048721,53.337659 3.7627482,55.899679 6.9602392,57.224124 z"
             id="path11311"
             style="fill:#000000;fill-opacity:1;fill-rule:evenodd;stroke:#000000;stroke-width:0.31109464;stroke-linecap:round;stroke-linejoin:round;stroke-miterlimit:4;stroke-dasharray:none;stroke-opacity:1" />
          <path
             d="M 17.500063,59.30379 C 17.511358,63.453359 17.510609,57.545749 17.500064,61.495336 C 13.389932,61.495332 9.3968452,60.669917 5.8340032,59.162125 C 7.4474642,55.336881 5.0455402,60.908303 6.7490332,57.038036 C 9.7491042,58.307663 14.039124,59.303789 17.500063,59.30379 z"
             id="path11313"
             style="fill:#ffffff;fill-opacity:1;fill-rule:evenodd;stroke:#000000;stroke-width:0.31109464;stroke-linecap:round;stroke-linejoin:round;stroke-miterlimit:4;stroke-dasharray:none;stroke-opacity:1" />
          <path
             d="M 28.033445,57.191735 C 29.631851,61.021114 27.370415,55.563481 28.872114,59.216459 C 25.074846,60.789334 21.069842,61.554839 17.201198,61.525261 C 17.227984,57.373752 17.140986,63.440251 17.233722,59.212692 C 20.491291,59.237597 24.835954,58.516178 28.033445,57.191735 z"
             id="path11315"
             style="fill:#000000;fill-opacity:1;fill-rule:evenodd;stroke:#000000;stroke-width:0.31109464;stroke-linecap:round;stroke-linejoin:round;stroke-miterlimit:4;stroke-dasharray:none;stroke-opacity:1" />
          <path
             d="M 36.956773,51.209499 C 39.898947,54.135701 35.721107,49.958919 38.50643,52.759156 C 35.600125,55.665454 32.19293,57.905337 28.60745,59.358477 C 27.043483,55.512732 29.284656,61.150739 27.752516,57.209495 C 30.771648,55.985887 34.509518,53.656752 36.956773,51.209499 z"
             id="path11317"
             style="fill:#ffffff;fill-opacity:1;fill-rule:evenodd;stroke:#000000;stroke-width:0.31109464;stroke-linecap:round;stroke-linejoin:round;stroke-miterlimit:4;stroke-dasharray:none;stroke-opacity:1" />
          <path
             d="M 42.91155,42.267824 C 46.749573,43.845361 41.291367,41.585308 44.936274,43.106493 C 43.363391,46.903757 41.072719,50.277016 38.31626,52.991646 C 35.39964,50.037145 39.627786,54.388324 36.704024,51.333414 C 39.025084,49.047576 41.587104,45.465315 42.91155,42.267824 z"
             id="path11319"
             style="fill:#000000;fill-opacity:1;fill-rule:evenodd;stroke:#000000;stroke-width:0.31109464;stroke-linecap:round;stroke-linejoin:round;stroke-miterlimit:4;stroke-dasharray:none;stroke-opacity:1" />
          <path
             d="M 44.991216,31.727998 C 49.140784,31.716704 43.233174,31.717453 47.182761,31.727999 C 47.182757,35.838131 46.357342,39.831218 44.84955,43.39406 C 41.024306,41.780599 46.595728,44.182523 42.725461,42.47903 C 43.995088,39.478959 44.991214,35.188939 44.991216,31.727998 z"
             id="path11321"
             style="fill:#ffffff;fill-opacity:1;fill-rule:evenodd;stroke:#000000;stroke-width:0.31109464;stroke-linecap:round;stroke-linejoin:round;stroke-miterlimit:4;stroke-dasharray:none;stroke-opacity:1" />
          <path
             d="M 42.87916,21.194617 C 46.708539,19.596212 41.250906,21.857648 44.903884,20.35595 C 46.476759,24.153217 47.242264,28.158221 47.212686,32.026864 C 43.061177,32.000078 49.127676,32.087077 44.900117,31.99434 C 44.925022,28.736772 44.203603,24.392109 42.87916,21.194617 z"
             id="path11323"
             style="fill:#000000;fill-opacity:1;fill-rule:evenodd;stroke:#000000;stroke-width:0.31109464;stroke-linecap:round;stroke-linejoin:round;stroke-miterlimit:4;stroke-dasharray:none;stroke-opacity:1" />
          <path
             d="M 36.896924,12.271289 C 39.823126,9.3291159 35.646344,13.506956 38.446581,10.721634 C 41.352879,13.627938 43.592762,17.035133 45.045902,20.620613 C 41.200157,22.18458 46.838164,19.943407 42.89692,21.475547 C 41.673312,18.456415 39.344177,14.718545 36.896924,12.271289 z"
             id="path11325"
             style="fill:#ffffff;fill-opacity:1;fill-rule:evenodd;stroke:#000000;stroke-width:0.31109464;stroke-linecap:round;stroke-linejoin:round;stroke-miterlimit:4;stroke-dasharray:none;stroke-opacity:1" />
          <path
             d="M 27.955249,6.3165119 C 29.532786,2.4784889 27.272733,7.9366959 28.793918,4.2917889 C 32.591181,5.8646719 35.96444,8.1553439 38.679071,10.911803 C 35.72457,13.828423 40.075749,9.6002769 37.020839,12.524039 C 34.735001,10.202979 31.15274,7.6409579 27.955249,6.3165119 z"
             id="path11327"
             style="fill:#000000;fill-opacity:1;fill-rule:evenodd;stroke:#000000;stroke-width:0.31109464;stroke-linecap:round;stroke-linejoin:round;stroke-miterlimit:4;stroke-dasharray:none;stroke-opacity:1" />
        </g>
        <g
           transform="matrix(0.3542877,-0.3542877,0.3542877,0.3542877,4.0292066,25.077879)"
           id="g7711"
           style="stroke:#000000;stroke-opacity:1">
          <g
             id="g7713"
             style="stroke:#000000;stroke-opacity:1">
            <path
               d="M 30,0.16877013 L 30,49.049843 L 35,44.049843 L 30,0.16877013 z"
               id="path7715"
               style="fill:#000000;fill-opacity:1;fill-rule:evenodd;stroke:#000000;stroke-width:0.29764605px;stroke-linecap:butt;stroke-linejoin:miter;stroke-opacity:1" />
            <path
               d="M 29.690956,0.16877013 L 29.690956,49.049843 L 24.690956,43.964041 L 29.690956,0.16877013 z"
               id="path7717"
               style="fill:#ffffff;fill-opacity:1;fill-rule:evenodd;stroke:#000000;stroke-width:0.29764605px;stroke-linecap:butt;stroke-linejoin:miter;stroke-opacity:1" />
          </g>
          <g
             transform="matrix(0,1,-1,0,79.044144,19.353188)"
             id="g7719"
             style="stroke:#000000;stroke-opacity:1">
            <path
               d="M 30,0.16877013 L 30,49.049843 L 35,44.049843 L 30,0.16877013 z"
               id="path7721"
               style="fill:#000000;fill-opacity:1;fill-rule:evenodd;stroke:#000000;stroke-width:0.29764605px;stroke-linecap:butt;stroke-linejoin:miter;stroke-opacity:1" />
            <path
               d="M 29.690956,0.16877013 L 29.690956,49.049843 L 24.690956,43.964041 L 29.690956,0.16877013 z"
               id="path7723"
               style="fill:#ffffff;fill-opacity:1;fill-rule:evenodd;stroke:#000000;stroke-width:0.29764605px;stroke-linecap:butt;stroke-linejoin:miter;stroke-opacity:1" />
          </g>
          <g
             transform="matrix(-1,0,0,-1,59.690956,98.397332)"
             id="g7725"
             style="stroke:#000000;stroke-opacity:1">
            <path
               d="M 30,0.16877013 L 30,49.049843 L 35,44.049843 L 30,0.16877013 z"
               id="path7727"
               style="fill:#000000;fill-opacity:1;fill-rule:evenodd;stroke:#000000;stroke-width:0.29764605px;stroke-linecap:butt;stroke-linejoin:miter;stroke-opacity:1" />
            <path
               d="M 29.690956,0.16877013 L 29.690956,49.049843 L 24.690956,43.964041 L 29.690956,0.16877013 z"
               id="path7729"
               style="fill:#ffffff;fill-opacity:1;fill-rule:evenodd;stroke:#000000;stroke-width:0.29764605px;stroke-linecap:butt;stroke-linejoin:miter;stroke-opacity:1" />
          </g>
          <g
             transform="matrix(0,-1,1,0,-19.353188,79.044144)"
             id="g7731"
             style="stroke:#000000;stroke-opacity:1">
            <path
               d="M 30,0.16877013 L 30,49.049843 L 35,44.049843 L 30,0.16877013 z"
               id="path7733"
               style="fill:#000000;fill-opacity:1;fill-rule:evenodd;stroke:#000000;stroke-width:0.29764605px;stroke-linecap:butt;stroke-linejoin:miter;stroke-opacity:1" />
            <path
               d="M 29.690956,0.16877013 L 29.690956,49.049843 L 24.690956,43.964041 L 29.690956,0.16877013 z"
               id="path7735"
               style="fill:#ffffff;fill-opacity:1;fill-rule:evenodd;stroke:#000000;stroke-width:0.29764605px;stroke-linecap:butt;stroke-linejoin:miter;stroke-opacity:1" />
          </g>
        </g>
        <g
           transform="matrix(0.61002,0,0,0.61002,13.827236,1.9223056)"
           id="g7697"
           style="stroke:#000000;stroke-opacity:1">
          <g
             id="g7671"
             style="stroke:#000000;stroke-opacity:1">
            <path
               d="M 30,0.16877013 L 30,49.049843 L 35,44.049843 L 30,0.16877013 z"
               id="path2393"
               style="fill:#000000;fill-opacity:1;fill-rule:evenodd;stroke:#000000;stroke-width:0.29764605px;stroke-linecap:butt;stroke-linejoin:miter;stroke-opacity:1" />
            <path
               d="M 29.690956,0.16877013 L 29.690956,49.049843 L 24.690956,43.964041 L 29.690956,0.16877013 z"
               id="path7160"
               style="fill:#ffffff;fill-opacity:1;fill-rule:evenodd;stroke:#000000;stroke-width:0.29764605px;stroke-linecap:butt;stroke-linejoin:miter;stroke-opacity:1" />
          </g>
          <g
             transform="matrix(0,1,-1,0,79.044144,19.353188)"
             id="g7679"
             style="stroke:#000000;stroke-opacity:1">
            <path
               d="M 30,0.16877013 L 30,49.049843 L 35,44.049843 L 30,0.16877013 z"
               id="path7681"
               style="fill:#000000;fill-opacity:1;fill-rule:evenodd;stroke:#000000;stroke-width:0.29764605px;stroke-linecap:butt;stroke-linejoin:miter;stroke-opacity:1" />
            <path
               d="M 29.690956,0.16877013 L 29.690956,49.049843 L 24.690956,43.964041 L 29.690956,0.16877013 z"
               id="path7683"
               style="fill:#ffffff;fill-opacity:1;fill-rule:evenodd;stroke:#000000;stroke-width:0.29764605px;stroke-linecap:butt;stroke-linejoin:miter;stroke-opacity:1" />
          </g>
          <g
             transform="matrix(-1,0,0,-1,59.690956,98.397332)"
             id="g7685"
             style="stroke:#000000;stroke-opacity:1">
            <path
               d="M 30,0.16877013 L 30,49.049843 L 35,44.049843 L 30,0.16877013 z"
               id="path7687"
               style="fill:#000000;fill-opacity:1;fill-rule:evenodd;stroke:#000000;stroke-width:0.29764605px;stroke-linecap:butt;stroke-linejoin:miter;stroke-opacity:1" />
            <path
               d="M 29.690956,0.16877013 L 29.690956,49.049843 L 24.690956,43.964041 L 29.690956,0.16877013 z"
               id="path7689"
               style="fill:#ffffff;fill-opacity:1;fill-rule:evenodd;stroke:#000000;stroke-width:0.29764605px;stroke-linecap:butt;stroke-linejoin:miter;stroke-opacity:1" />
          </g>
          <g
             transform="matrix(0,-1,1,0,-19.353188,79.044144)"
             id="g7691"
             style="stroke:#000000;stroke-opacity:1">
            <path
               d="M 30,0.16877013 L 30,49.049843 L 35,44.049843 L 30,0.16877013 z"
               id="path7693"
               style="fill:#000000;fill-opacity:1;fill-rule:evenodd;stroke:#000000;stroke-width:0.29764605px;stroke-linecap:butt;stroke-linejoin:miter;stroke-opacity:1" />
            <path
               d="M 29.690956,0.16877013 L 29.690956,49.049843 L 24.690956,43.964041 L 29.690956,0.16877013 z"
               id="path7695"
               style="fill:#ffffff;fill-opacity:1;fill-rule:evenodd;stroke:#000000;stroke-width:0.29764605px;stroke-linecap:butt;stroke-linejoin:miter;stroke-opacity:1" />
          </g>
        </g>
      </g>
    </g>
  </g>
</svg>
