<?xml version="1.0" encoding="UTF-8" standalone="no"?>
<!-- Created with Inkscape (http://www.inkscape.org/) -->
<svg
   xmlns:svg="http://www.w3.org/2000/svg"
   xmlns="http://www.w3.org/2000/svg"
   version="1.0"
   width="64"
   height="64"
   id="svg7149">
  <defs
     id="defs7151" />
  <g
     id="layer1">
    <g
       transform="matrix(0.3542877,-0.3542877,0.3542877,0.3542877,3.6029185,25.259881)"
       id="g7711">
      <g
         id="g7713">
        <path
           d="M 30,0.16877013 L 30,49.049843 L 35,44.049843 L 30,0.16877013 z"
           id="path7715"
           style="fill:#000000;fill-opacity:1;fill-rule:evenodd;stroke:#000000;stroke-width:0.29764605px;stroke-linecap:butt;stroke-linejoin:miter;stroke-opacity:1" />
        <path
           d="M 29.690956,0.16877013 L 29.690956,49.049843 L 24.690956,43.964041 L 29.690956,0.16877013 z"
           id="path7717"
           style="fill:#ffffff;fill-opacity:1;fill-rule:evenodd;stroke:#000000;stroke-width:0.29764605px;stroke-linecap:butt;stroke-linejoin:miter;stroke-opacity:1" />
      </g>
      <g
         transform="matrix(0,1,-1,0,79.044144,19.353188)"
         id="g7719">
        <path
           d="M 30,0.16877013 L 30,49.049843 L 35,44.049843 L 30,0.16877013 z"
           id="path7721"
           style="fill:#000000;fill-opacity:1;fill-rule:evenodd;stroke:#000000;stroke-width:0.29764605px;stroke-linecap:butt;stroke-linejoin:miter;stroke-opacity:1" />
        <path
           d="M 29.690956,0.16877013 L 29.690956,49.049843 L 24.690956,43.964041 L 29.690956,0.16877013 z"
           id="path7723"
           style="fill:#ffffff;fill-opacity:1;fill-rule:evenodd;stroke:#000000;stroke-width:0.29764605px;stroke-linecap:butt;stroke-linejoin:miter;stroke-opacity:1" />
      </g>
      <g
         transform="matrix(-1,0,0,-1,59.690956,98.397332)"
         id="g7725">
        <path
           d="M 30,0.16877013 L 30,49.049843 L 35,44.049843 L 30,0.16877013 z"
           id="path7727"
           style="fill:#000000;fill-opacity:1;fill-rule:evenodd;stroke:#000000;stroke-width:0.29764605px;stroke-linecap:butt;stroke-linejoin:miter;stroke-opacity:1" />
        <path
           d="M 29.690956,0.16877013 L 29.690956,49.049843 L 24.690956,43.964041 L 29.690956,0.16877013 z"
           id="path7729"
           style="fill:#ffffff;fill-opacity:1;fill-rule:evenodd;stroke:#000000;stroke-width:0.29764605px;stroke-linecap:butt;stroke-linejoin:miter;stroke-opacity:1" />
      </g>
      <g
         transform="matrix(0,-1,1,0,-19.353188,79.044144)"
         id="g7731">
        <path
           d="M 30,0.16877013 L 30,49.049843 L 35,44.049843 L 30,0.16877013 z"
           id="path7733"
           style="fill:#000000;fill-opacity:1;fill-rule:evenodd;stroke:#000000;stroke-width:0.29764605px;stroke-linecap:butt;stroke-linejoin:miter;stroke-opacity:1" />
        <path
           d="M 29.690956,0.16877013 L 29.690956,49.049843 L 24.690956,43.964041 L 29.690956,0.16877013 z"
           id="path7735"
           style="fill:#ffffff;fill-opacity:1;fill-rule:evenodd;stroke:#000000;stroke-width:0.29764605px;stroke-linecap:butt;stroke-linejoin:miter;stroke-opacity:1" />
      </g>
    </g>
    <g
       transform="matrix(0.61002,0,0,0.61002,13.400948,2.1043074)"
       id="g7697">
      <g
         id="g7671">
        <path
           d="M 30,0.16877013 L 30,49.049843 L 35,44.049843 L 30,0.16877013 z"
           id="path2393"
           style="fill:#000000;fill-opacity:1;fill-rule:evenodd;stroke:#000000;stroke-width:0.29764605px;stroke-linecap:butt;stroke-linejoin:miter;stroke-opacity:1" />
        <path
           d="M 29.690956,0.16877013 L 29.690956,49.049843 L 24.690956,43.964041 L 29.690956,0.16877013 z"
           id="path7160"
           style="fill:#ffffff;fill-opacity:1;fill-rule:evenodd;stroke:#000000;stroke-width:0.29764605px;stroke-linecap:butt;stroke-linejoin:miter;stroke-opacity:1" />
      </g>
      <g
         transform="matrix(0,1,-1,0,79.044144,19.353188)"
         id="g7679">
        <path
           d="M 30,0.16877013 L 30,49.049843 L 35,44.049843 L 30,0.16877013 z"
           id="path7681"
           style="fill:#000000;fill-opacity:1;fill-rule:evenodd;stroke:#000000;stroke-width:0.29764605px;stroke-linecap:butt;stroke-linejoin:miter;stroke-opacity:1" />
        <path
           d="M 29.690956,0.16877013 L 29.690956,49.049843 L 24.690956,43.964041 L 29.690956,0.16877013 z"
           id="path7683"
           style="fill:#ffffff;fill-opacity:1;fill-rule:evenodd;stroke:#000000;stroke-width:0.29764605px;stroke-linecap:butt;stroke-linejoin:miter;stroke-opacity:1" />
      </g>
      <g
         transform="matrix(-1,0,0,-1,59.690956,98.397332)"
         id="g7685">
        <path
           d="M 30,0.16877013 L 30,49.049843 L 35,44.049843 L 30,0.16877013 z"
           id="path7687"
           style="fill:#000000;fill-opacity:1;fill-rule:evenodd;stroke:#000000;stroke-width:0.29764605px;stroke-linecap:butt;stroke-linejoin:miter;stroke-opacity:1" />
        <path
           d="M 29.690956,0.16877013 L 29.690956,49.049843 L 24.690956,43.964041 L 29.690956,0.16877013 z"
           id="path7689"
           style="fill:#ffffff;fill-opacity:1;fill-rule:evenodd;stroke:#000000;stroke-width:0.29764605px;stroke-linecap:butt;stroke-linejoin:miter;stroke-opacity:1" />
      </g>
      <g
         transform="matrix(0,-1,1,0,-19.353188,79.044144)"
         id="g7691">
        <path
           d="M 30,0.16877013 L 30,49.049843 L 35,44.049843 L 30,0.16877013 z"
           id="path7693"
           style="fill:#000000;fill-opacity:1;fill-rule:evenodd;stroke:#000000;stroke-width:0.29764605px;stroke-linecap:butt;stroke-linejoin:miter;stroke-opacity:1" />
        <path
           d="M 29.690956,0.16877013 L 29.690956,49.049843 L 24.690956,43.964041 L 29.690956,0.16877013 z"
           id="path7695"
           style="fill:#ffffff;fill-opacity:1;fill-rule:evenodd;stroke:#000000;stroke-width:0.29764605px;stroke-linecap:butt;stroke-linejoin:miter;stroke-opacity:1" />
      </g>
    </g>
  </g>
</svg>
