<?xml version="1.0" encoding="UTF-8" standalone="no"?>
<svg
   xmlns:dc="http://purl.org/dc/elements/1.1/"
   xmlns:cc="http://creativecommons.org/ns#"
   xmlns:rdf="http://www.w3.org/1999/02/22-rdf-syntax-ns#"
   xmlns:svg="http://www.w3.org/2000/svg"
   xmlns="http://www.w3.org/2000/svg"
   height="32"
   width="32"
   version="1.1"
   id="svg3025"
   viewBox="0 -256 32 32">
  <metadata
     id="metadata3035">
    <rdf:RDF>
      <cc:Work
         rdf:about="">
        <dc:format>image/svg+xml</dc:format>
        <dc:type
           rdf:resource="http://purl.org/dc/dcmitype/StillImage" />
        <dc:title></dc:title>
      </cc:Work>
    </rdf:RDF>
  </metadata>
  <defs
     id="defs3033" />
  <path
     style="opacity:0.7;fill:#ffffff"
     d="m 876.47461,55576 a 362.353,362.353 0 0 1 362.35329,362.354 362.353,362.353 0 0 1 -362.35329,362.353 362.353,362.353 0 0 1 -362.3533,-362.353 362.353,362.353 0 0 1 362.3533,-362.354 z"
     id="path3029-3" />
  <path
     style="opacity:0.7;fill:#000000;stroke-width:0.02066946"
     d="m 15.99999,-255.87412 c -2.921268,0 -5.41539,1.03338 -7.4823425,3.1003 -2.066935,2.06695 -3.100404,4.56123 -3.100404,7.48246 0,1.502 0.227354,2.73528 0.68208,3.69985 l 7.5443635,15.99805 c 0.206693,0.45487 0.527062,0.81302 0.961128,1.07485 0.434046,0.26182 0.899113,0.39274 1.395177,0.39274 0.496063,0 0.961128,-0.13101 1.395193,-0.39274 0.434067,-0.26183 0.761316,-0.61998 0.981789,-1.07485 l 7.523682,-15.99805 c 0.454728,-0.96457 0.6821,-2.19785 0.6821,-3.69985 0,-2.92123 -1.033467,-5.41551 -3.100424,-7.48246 -2.066933,-2.06692 -4.561054,-3.1003 -7.482342,-3.1003 z m 0,3.34353 a 7.4896387,7.4896387 0 0 1 7.489649,7.48972 7.4896387,7.4896387 0 0 1 -7.489649,7.48953 7.4896387,7.4896387 0 0 1 -7.4896505,-7.48953 7.4896387,7.4896387 0 0 1 7.4896505,-7.48972 z"
     id="path21912" />
</svg>
