<?xml version="1.0" encoding="UTF-8" standalone="no"?>
<svg
   xmlns:dc="http://purl.org/dc/elements/1.1/"
   xmlns:cc="http://creativecommons.org/ns#"
   xmlns:rdf="http://www.w3.org/1999/02/22-rdf-syntax-ns#"
   xmlns:svg="http://www.w3.org/2000/svg"
   xmlns="http://www.w3.org/2000/svg"
   width="32"
   height="32"
   viewBox="0 0 8.4666659 8.4666659"
   version="1.1"
   id="svg8">
  <defs
     id="defs2" />
  <metadata
     id="metadata5">
    <rdf:RDF>
      <cc:Work
         rdf:about="">
        <dc:format>image/svg+xml</dc:format>
        <dc:type
           rdf:resource="http://purl.org/dc/dcmitype/StillImage" />
        <dc:title></dc:title>
      </cc:Work>
    </rdf:RDF>
  </metadata>
  <path
     id="path814"
     transform="scale(0.26458331)"
     d="M 16 0.083984375 C 9.4770814 0.083984375 4.189466 5.463218 4.1894531 12.099609 C 4.1894429 18.736001 8.4209063 24.265612 16 31.976562 C 23.638416 24.205276 27.810557 18.736003 27.810547 12.099609 C 27.810534 5.4632195 22.522919 0.083984375 16 0.083984375 z M 16 2.9589844 C 21.066737 2.9589844 25.173828 7.0660753 25.173828 12.132812 C 25.173828 17.199549 21.066737 21.306641 16 21.306641 C 10.933263 21.306641 6.8261719 17.199549 6.8261719 12.132812 C 6.8261719 7.0660757 10.933263 2.9589846 16 2.9589844 z "
     style="color:#000000;clip-rule:nonzero;display:inline;overflow:visible;visibility:visible;opacity:1;isolation:auto;mix-blend-mode:normal;color-interpolation:sRGB;color-interpolation-filters:linearRGB;solid-color:#000000;solid-opacity:1;fill:#000000;fill-opacity:1;fill-rule:evenodd;stroke:none;stroke-width:5.34579372;stroke-linecap:round;stroke-linejoin:round;stroke-miterlimit:4;stroke-dasharray:none;stroke-dashoffset:0;stroke-opacity:1;paint-order:markers stroke fill;color-rendering:auto;image-rendering:auto;shape-rendering:auto;text-rendering:auto;enable-background:accumulate" />
  <g
     id="layer1"
     transform="translate(0,-288.53334)" />
  <path
     id="path817"
     d="m 6.6606572,3.2101429 c 0,1.3405741 -1.08675,2.4273241 -2.4273241,2.4273241 -1.340574,-1e-7 -2.427324,-1.0867501 -2.427324,-2.4273241 0,-1.340574 1.08675,-2.427324 2.427324,-2.42732406 1.3405741,0 2.4273241,1.08674996 2.4273241,2.42732406 z"
     style="color:#000000;clip-rule:nonzero;display:inline;overflow:visible;visibility:visible;opacity:1;isolation:auto;mix-blend-mode:normal;color-interpolation:sRGB;color-interpolation-filters:linearRGB;solid-color:#000000;solid-opacity:1;fill:#ffffff;fill-opacity:1;fill-rule:evenodd;stroke:none;stroke-width:1.29799426;stroke-linecap:round;stroke-linejoin:round;stroke-miterlimit:4;stroke-dasharray:none;stroke-dashoffset:0;stroke-opacity:1;paint-order:markers stroke fill;color-rendering:auto;image-rendering:auto;shape-rendering:auto;text-rendering:auto;enable-background:accumulate" />
</svg>
